<svg t="1587043041318" class="icon" viewBox="0 0 1024 1024" version="1.1" xmlns="http://www.w3.org/2000/svg" p-id="1010" width="128" height="128"><path d="M30.56 791.264c4.64 16.288 23.264 23.264 37.248 18.624 16.288-4.64 23.264-23.264 18.624-37.248C16.608 581.792 84.096 374.688 237.696 256c11.648-9.312 23.264-16.288 37.248-25.6 25.6-16.288 53.536-30.24 83.776-39.552a469.28 469.28 0 0 1 176.864-27.936h25.6c6.976 0 11.648 0 18.624 2.336 30.24 4.64 58.176 11.648 88.448 23.264 235.04 86.112 356.064 346.752 269.952 581.824-4.64 16.288 2.336 32.576 18.624 37.248s32.576-2.336 37.248-18.624a513.92 513.92 0 0 0 0-349.088h2.336C921.952 239.712 738.08 111.712 537.952 102.432h-48.864c-200.16 9.312-384 137.312-458.464 337.44-39.552 109.376-41.888 232.736 0 351.424z m707.488-386.304a29.504 29.504 0 0 0-41.888 0L521.6 579.52c-4.64-2.336-9.312-2.336-13.952-2.336-32.576 0-58.176 25.6-58.176 58.176s25.6 58.176 58.176 58.176 58.176-25.6 58.176-58.176c0-4.64 0-9.312-2.336-16.288l174.56-174.56c11.648-11.648 11.648-30.24 0-39.552z m228.064 458.464H58.464c-16.288 0-30.24 13.952-30.24 30.24s13.952 30.24 30.24 30.24h907.648c16.288 0 30.24-13.952 30.24-30.24s-13.952-30.24-30.24-30.24z" fill="#fff" p-id="1011"></path></svg>