<svg t="1587047924158" class="icon" viewBox="0 0 1024 1024" version="1.1" xmlns="http://www.w3.org/2000/svg" p-id="1010" width="128" height="128"><path d="M956.030 93.879l-359.752 359.204c-9.040 8.988-23.686 8.988-32.7 0l-6.546-6.546c-9.053-9.027-9.053-23.636 0-32.661l359.738-359.204c9.027-9.014 23.673-9.014 32.71 0l6.548 6.522c9.014 9.024 9.014 23.657 0 32.684v0zM187.072 460.661c-12.573 0-22.782-10.209-22.782-22.782v-5.986c0-12.577 10.209-22.782 22.782-22.782h237.932c12.573 0 22.782 10.207 22.782 22.782v5.986c0 12.573-10.209 22.782-22.782 22.782h-237.932zM757.052 638.064v5.988c0 12.574-10.209 22.782-22.795 22.782h-547.184c-12.573 0-22.782-10.208-22.782-22.782v-5.988c0-12.573 10.209-22.782 22.782-22.782h547.184c12.586 0.001 22.795 10.21 22.795 22.782v0zM656.947 125.626h-492.658c-28.467 0-51.54 23.061-51.54 51.54v695.843c0 28.477 23.075 51.538 51.54 51.538h644.303c28.477 0 51.54-23.061 51.54-51.538v-544.351c0-12.511 10.131-22.629 22.629-22.629h6.28c12.511 0 22.631 10.118 22.631 22.629v544.352c0 56.918-46.15 103.078-103.081 103.078h-644.303c-56.919 0-103.081-46.161-103.081-103.078v-695.844c0-56.933 46.161-103.081 103.081-103.081h492.659c12.573 0 22.782 10.196 22.782 22.782v5.976c-0.001 12.573-10.21 22.782-22.784 22.782v0zM656.947 125.626z" fill="#ffffff" p-id="1011"></path></svg>