<svg t="1587093870883" class="icon" viewBox="0 0 1024 1024" version="1.1" xmlns="http://www.w3.org/2000/svg" p-id="1041" width="128" height="128"><path d="M510.34299102 989.21858845c-244.40882569 0-444.07840869-198.84107852-444.07840871-444.0784087 0-153.27333136 77.05091792-293.29059082 207.12612347-375.3125357 19.05560336-12.42756741 44.73924267-6.62803595 57.16681007 13.2560719 12.42756741 19.05560336 6.62803595 44.73924267-13.2560719 57.16681008C212.08137324 306.53088553 149.1150317 420.86450569 149.1150317 545.14017975c0 198.84107852 161.5583763 361.22795931 361.22795932 361.22795931S870.74244583 743.98125827 870.74244583 545.14017975c0-124.27567408-62.96634153-238.60929422-168.18641225-304.88965372-19.05560336-12.42756741-24.85513482-38.11120672-13.25607189-57.16681008 12.42756741-19.05560336 38.11120672-24.85513482 57.16681006-13.2560719 130.07520553 82.02194489 207.12612347 222.03920435 207.12612345 375.3125357 0 244.40882569-198.84107852 444.07840869-443.24990418 444.0784087z" fill="#41B883" p-id="1042"></path><path d="M510.34299102 520.28504494c-23.19812583 0-41.42522469-18.22709886-41.42522471-41.42522469V84.49168118c0-23.19812583 18.22709886-41.42522469 41.42522471-41.42522468s41.42522469 18.22709886 41.42522468 41.42522468V478.85982025c0 23.19812583-19.05560336 41.42522469-41.42522468 41.42522469z" fill="#41B883" p-id="1043"></path></svg>