<svg t="1587389952767" class="icon" viewBox="0 0 1024 1024" version="1.1" xmlns="http://www.w3.org/2000/svg" p-id="1382" width="128" height="128"><path d="M818.6296359 899.25797486H199.87154909c-44.46184709 0-80.62833897-36.16649187-80.62833897-80.62833896V199.87154909c0-44.46184709 36.16649187-80.62833897 80.62833897-80.62833897h618.75808681c44.46184709 0 80.62833897 36.16649187 80.62833896 80.62833897v618.75808681c0 44.46184709-36.16649187 80.62833897-80.62833896 80.62833896zM199.87154909 182.07109936c-9.80360162 0-17.78473884 7.98113722-17.78473884 17.78473882v618.75808683c0 9.80360162 7.98113722 17.78473884 17.78473884 17.78473882h618.75808681c9.80360162 0 17.78473884-7.98113722 17.78473884-17.78473882V199.87154909c0-9.80360162-7.98113722-17.78473884-17.78473884-17.78473884H199.87154909z" p-id="1383"></path><path d="M311.0890104 472.87985891h402.21475171v78.55450016H311.0890104z" p-id="1384"></path></svg>